<svg xmlns="http://www.w3.org/2000/svg" width="640" height="360" viewBox="0 0 640 360">
  <defs>
    <linearGradient id="bg" x1="0" y1="0" x2="1" y2="1">
      <stop offset="0%" stop-color="#e0f2fe"/>
      <stop offset="100%" stop-color="#f8fafc"/>
    </linearGradient>
    <linearGradient id="card" x1="0" y1="0" x2="1" y2="1">
      <stop offset="0%" stop-color="#ffffff"/>
      <stop offset="100%" stop-color="#e2e8f0"/>
    </linearGradient>
  </defs>
  <rect width="640" height="360" rx="24" fill="url(#bg)"/>
  <rect x="60" y="70" width="520" height="220" rx="20" fill="url(#card)" stroke="#cbd5f5"/>
  <rect x="100" y="110" width="280" height="18" rx="9" fill="#bae6fd"/>
  <rect x="100" y="145" width="360" height="14" rx="7" fill="#cbd5e1"/>
  <rect x="100" y="170" width="320" height="14" rx="7" fill="#cbd5e1"/>
  <g transform="translate(410 125)">
    <rect x="0" y="0" width="120" height="80" rx="10" fill="#0ea5e9" opacity="0.18"/>
    <path d="M6 16h108v60H6z" fill="#ffffff" stroke="#0ea5e9" stroke-width="2"/>
    <path d="M6 18l54 34 54-34" fill="none" stroke="#0ea5e9" stroke-width="2"/>
  </g>
  <circle cx="120" cy="250" r="8" fill="#0ea5e9"/>
  <circle cx="150" cy="250" r="8" fill="#38bdf8"/>
  <circle cx="180" cy="250" r="8" fill="#7dd3fc"/>
</svg>
