<svg xmlns="http://www.w3.org/2000/svg" width="640" height="360" viewBox="0 0 640 360">
  <defs>
    <linearGradient id="bg" x1="0" y1="0" x2="1" y2="1">
      <stop offset="0%" stop-color="#ecfdf3"/>
      <stop offset="100%" stop-color="#f8fafc"/>
    </linearGradient>
  </defs>
  <rect width="640" height="360" rx="24" fill="url(#bg)"/>
  <rect x="80" y="70" width="480" height="220" rx="18" fill="#ffffff" stroke="#bbf7d0"/>
  <g transform="translate(120 115)">
    <rect x="0" y="0" width="140" height="90" rx="12" fill="#10b981" opacity="0.15"/>
    <path d="M16 24h108v48H16z" fill="#ffffff" stroke="#10b981" stroke-width="2"/>
    <path d="M16 26l54 30 54-30" fill="none" stroke="#10b981" stroke-width="2"/>
  </g>
  <g transform="translate(320 110)">
    <rect x="0" y="0" width="200" height="20" rx="10" fill="#bbf7d0"/>
    <rect x="0" y="34" width="160" height="12" rx="6" fill="#cbd5e1"/>
    <rect x="0" y="54" width="180" height="12" rx="6" fill="#cbd5e1"/>
    <rect x="0" y="74" width="120" height="12" rx="6" fill="#cbd5e1"/>
  </g>
  <circle cx="500" cy="250" r="18" fill="#10b981" opacity="0.2"/>
  <path d="M500 240v16" stroke="#10b981" stroke-width="3" stroke-linecap="round"/>
  <path d="M492 248h16" stroke="#10b981" stroke-width="3" stroke-linecap="round"/>
</svg>
