<svg xmlns="http://www.w3.org/2000/svg" width="640" height="360" viewBox="0 0 640 360">
  <defs>
    <linearGradient id="bg" x1="0" y1="0" x2="1" y2="1">
      <stop offset="0%" stop-color="#fff7ed"/>
      <stop offset="100%" stop-color="#f8fafc"/>
    </linearGradient>
  </defs>
  <rect width="640" height="360" rx="24" fill="url(#bg)"/>
  <rect x="70" y="80" width="500" height="200" rx="18" fill="#ffffff" stroke="#fed7aa"/>
  <g transform="translate(140 120)">
    <rect x="0" y="0" width="120" height="90" rx="14" fill="#f97316" opacity="0.15"/>
    <rect x="12" y="22" width="96" height="60" rx="8" fill="#fff7ed" stroke="#f97316" stroke-width="2"/>
    <rect x="46" y="44" width="28" height="24" rx="6" fill="#f97316"/>
    <rect x="53" y="32" width="14" height="12" rx="6" fill="#f97316"/>
  </g>
  <rect x="300" y="130" width="220" height="16" rx="8" fill="#fed7aa"/>
  <rect x="300" y="156" width="180" height="12" rx="6" fill="#cbd5e1"/>
  <rect x="300" y="176" width="200" height="12" rx="6" fill="#cbd5e1"/>
  <rect x="300" y="196" width="140" height="12" rx="6" fill="#cbd5e1"/>
  <circle cx="470" cy="230" r="22" fill="#f97316" opacity="0.2"/>
  <path d="M460 230h20" stroke="#f97316" stroke-width="3" stroke-linecap="round"/>
</svg>
